<svg xmlns="http://www.w3.org/2000/svg" width="344" height="343" viewBox="0 0 344 343">
  <g fill="none" fill-rule="evenodd">
    <circle cx="171.61" cy="171.5" r="171.5" fill="#4360DF" fill-rule="nonzero"/>
    <path fill="#FFF" d="M142.85 178.81C116.18 180.31 100.02 194.16 101.16 214.86 102.33 235.92 123.83 248.86 145.34 247.68 180.34 245.68 206.16 214.58 209.07 179 204.305626 180.108041 199.454102 180.800638 194.57 181.07 174.88 182.18 162.54 177.7 142.85 178.81zM200.53 169.91C228.38 168.31 245.24 153.51 244.05 131.39 242.83 108.89 220.39 95.02 197.94 96.32 161.35 98.43 134.44 131.69 131.41 169.71 136.377096 168.522359 141.440725 167.782728 146.54 167.5 167.1 166.31 180 171.1 200.53 169.91z"/>
  </g>
</svg>
