<svg xmlns="http://www.w3.org/2000/svg" width="20" height="20" viewBox="0 0 20 20">
    <g fill="none" fill-rule="evenodd">
        <rect width="20" height="20" fill="#000" opacity=".5" rx="6"/>
        <path fill="#57A7ED" d="M10 8.812L6.436 5.247a.839.839 0 0 0-1.19 0 .839.839 0 0 0 .001 1.189L8.812 10l-3.565 3.564a.839.839 0 0 0 0 1.19c.33.33.86.327 1.189-.001L10 11.188l3.564 3.565c.33.33.861.328 1.19 0a.839.839 0 0 0-.001-1.189L11.188 10l3.565-3.564a.839.839 0 0 0 0-1.19.839.839 0 0 0-1.189.001L10 8.812z"/>
    </g>
</svg>
