<?xml version="1.0" encoding="UTF-8"?>
<svg width="44px" height="44px" viewBox="0 0 44 44" version="1.1" xmlns="http://www.w3.org/2000/svg" xmlns:xlink="http://www.w3.org/1999/xlink">
    <!-- Generator: Sketch 47 (45396) - http://www.bohemiancoding.com/sketch -->
    <title>Combined Shape</title>
    <desc>Created with Sketch.</desc>
    <defs></defs>
    <g id="Page-1" stroke="none" stroke-width="1" fill="none" fill-rule="evenodd">
        <g id="Artboard" transform="translate(-343.000000, -149.000000)" fill="#692FC7">
            <g id="Rectangle-16-+-status-hardwallet-+-Group-14-+-Group-3-Mask" transform="translate(160.000000, 129.000000)">
                <g id="Group-14" transform="translate(183.000000, 20.000000)">
                    <path d="M22,44 C9.8497355,44 0,34.1502645 0,22 C0,9.8497355 9.8497355,0 22,0 C34.1502645,0 44,9.8497355 44,22 C44,34.1502645 34.1502645,44 22,44 Z M18.1219,22.8569684 C14.2098987,23.0564179 11.8401376,24.8926332 12.0084034,27.6373571 C12.1797114,30.4300766 15.332294,32.1504619 18.4867487,31.9896224 C23.6273936,31.7276717 27.4076376,27.6002403 27.8333333,22.8827796 C27.1352298,23.0323133 26.4003839,23.1216923 25.7074289,23.1568893 C22.8195313,23.3040766 21.0095636,22.709781 18.1219,22.8569684 Z M25.8780999,21.1430316 C29.7901012,20.9435822 32.1598622,19.1073669 31.9915966,16.362643 C31.8202886,13.5699233 28.6677061,11.849538 25.5132512,12.0103776 C20.3726063,12.2723283 16.5923624,16.3997598 16.1666667,21.1172206 C16.8647702,20.9676867 17.5996162,20.8783078 18.2925712,20.8431109 C21.1804688,20.6959235 22.9904363,21.290219 25.8780999,21.1430316 Z" id="Combined-Shape"></path>
                </g>
            </g>
        </g>
    </g>
</svg>