<?xml version="1.0" encoding="UTF-8"?>
<svg width="134px" height="44px" viewBox="0 0 134 44" version="1.1" xmlns="http://www.w3.org/2000/svg" xmlns:xlink="http://www.w3.org/1999/xlink">
    <!-- Generator: Sketch 47 (45396) - http://www.bohemiancoding.com/sketch -->
    <title>Group</title>
    <desc>Created with Sketch.</desc>
    <defs></defs>
    <g id="Page-1" stroke="none" stroke-width="1" fill="none" fill-rule="evenodd">
        <g id="Artboard" transform="translate(-180.000000, -220.000000)">
            <g id="Rectangle-16-+-status-hardwallet-+-Group-14-+-Group-3-Mask" transform="translate(160.000000, 129.000000)">
                <g id="Group" transform="translate(20.000000, 91.000000)">
                    <path d="M6.656,17.39 C10.088,17.39 12.142,15.648 12.142,13.074 C12.142,11.28 10.894,10.11 8.97,9.59 L6.006,8.784 C5.33,8.602 4.94,8.238 4.94,7.666 C4.94,7.042 5.512,6.626 6.37,6.626 C7.436,6.626 8.086,7.12 8.086,8.004 L12.012,8.004 C12.012,5.638 10.088,4.104 6.422,4.104 C3.12,4.104 1.066,5.742 1.066,8.082 C1.066,9.876 2.132,11.176 4.212,11.696 L7.28,12.476 C7.956,12.632 8.19,13.048 8.19,13.542 C8.19,14.27 7.592,14.712 6.734,14.712 C5.512,14.712 4.68,14.088 4.68,13.23 L0.728,13.23 C0.728,15.596 2.99,17.39 6.656,17.39 Z M20.99,13.906 C20.002,13.906 19.248,13.62 19.248,11.774 L19.248,7.614 L22.082,7.614 L22.082,4.468 L19.248,4.468 L19.248,0.75 L15.27,0.75 L15.27,4.468 L13.294,4.468 L13.294,7.614 L15.27,7.614 L15.27,12.606 C15.27,16.792 17.844,17.208 19.716,17.208 C20.86,17.208 21.796,17.104 22.368,17 L22.368,13.828 C22.004,13.88 21.484,13.906 20.99,13.906 Z M29.448,17.338 C25.704,17.338 23.546,14.504 23.546,10.734 C23.546,6.99 25.86,4.13 29.5,4.13 C31.32,4.13 32.75,4.988 33.426,6.262 L33.426,4.468 L37.378,4.468 L37.378,17 L33.426,17 L33.426,15.232 C32.75,16.48 31.19,17.338 29.448,17.338 Z M30.592,14.036 C32.568,14.036 33.582,12.554 33.582,10.734 C33.582,8.94 32.568,7.458 30.592,7.458 C28.746,7.458 27.602,8.836 27.602,10.734 C27.602,12.632 28.746,14.036 30.592,14.036 Z M47.058,13.906 C46.07,13.906 45.316,13.62 45.316,11.774 L45.316,7.614 L48.15,7.614 L48.15,4.468 L45.316,4.468 L45.316,0.75 L41.338,0.75 L41.338,4.468 L39.362,4.468 L39.362,7.614 L41.338,7.614 L41.338,12.606 C41.338,16.792 43.912,17.208 45.784,17.208 C46.928,17.208 47.864,17.104 48.436,17 L48.436,13.828 C48.072,13.88 47.552,13.906 47.058,13.906 Z M55.022,17.338 C56.92,17.338 58.22,16.532 58.922,15.206 L58.922,17 L62.874,17 L62.874,4.468 L58.922,4.468 L58.922,11.202 C58.922,12.892 58.194,13.984 56.504,13.984 C54.996,13.984 54.424,13.048 54.424,11.332 L54.424,4.468 L50.394,4.468 L50.394,12.216 C50.394,15.466 52.006,17.338 55.022,17.338 Z M70.994,17.39 C74.426,17.39 76.48,15.648 76.48,13.074 C76.48,11.28 75.232,10.11 73.308,9.59 L70.344,8.784 C69.668,8.602 69.278,8.238 69.278,7.666 C69.278,7.042 69.85,6.626 70.708,6.626 C71.774,6.626 72.424,7.12 72.424,8.004 L76.35,8.004 C76.35,5.638 74.426,4.104 70.76,4.104 C67.458,4.104 65.404,5.742 65.404,8.082 C65.404,9.876 66.47,11.176 68.55,11.696 L71.618,12.476 C72.294,12.632 72.528,13.048 72.528,13.542 C72.528,14.27 71.93,14.712 71.072,14.712 C69.85,14.712 69.018,14.088 69.018,13.23 L65.066,13.23 C65.066,15.596 67.328,17.39 70.994,17.39 Z" id="status" fill="#3C1877"></path>
                    <path d="M1.638,43 L5.616,43 L5.616,36.448 C5.616,34.524 6.448,33.484 8.034,33.484 C9.646,33.484 10.244,34.446 10.244,36.552 L10.244,43 L14.248,43 L14.248,35.252 C14.248,31.846 12.714,30.13 9.672,30.13 C7.774,30.13 6.344,30.884 5.616,32.288 L5.616,24.8 L1.638,24.8 L1.638,43 Z M22.212,43.338 C18.468,43.338 16.31,40.504 16.31,36.734 C16.31,32.99 18.624,30.13 22.264,30.13 C24.084,30.13 25.514,30.988 26.19,32.262 L26.19,30.468 L30.142,30.468 L30.142,43 L26.19,43 L26.19,41.232 C25.514,42.48 23.954,43.338 22.212,43.338 Z M23.356,40.036 C25.332,40.036 26.346,38.554 26.346,36.734 C26.346,34.94 25.332,33.458 23.356,33.458 C21.51,33.458 20.366,34.836 20.366,36.734 C20.366,38.632 21.51,40.036 23.356,40.036 Z M33.244,43 L37.222,43 L37.222,38.164 C37.222,35.148 38.574,33.978 40.524,33.978 C41.018,33.978 41.252,34.004 41.72,34.056 L41.72,30.364 C41.408,30.286 41.148,30.26 40.68,30.26 C39.146,30.26 37.664,31.222 37.222,33.094 L37.222,30.468 L33.244,30.468 L33.244,43 Z M48.644,43.338 C44.9,43.338 42.742,40.504 42.742,36.734 C42.742,32.99 45.056,30.13 48.696,30.13 C50.516,30.13 51.946,30.988 52.622,32.262 L52.622,24.8 L56.574,24.8 L56.574,43 L52.622,43 L52.622,41.232 C51.946,42.48 50.386,43.338 48.644,43.338 Z M49.788,40.036 C51.764,40.036 52.778,38.554 52.778,36.734 C52.778,34.94 51.764,33.458 49.788,33.458 C47.942,33.458 46.798,34.836 46.798,36.734 C46.798,38.632 47.942,40.036 49.788,40.036 Z M62.64,43 L66.202,43 L68.594,35.382 L71.012,43 L74.574,43 L79.072,30.468 L74.938,30.468 L72.676,38.06 L70.544,30.468 L66.67,30.468 L64.538,38.06 L62.276,30.468 L58.116,30.468 L62.64,43 Z M85.606,43.338 C81.862,43.338 79.704,40.504 79.704,36.734 C79.704,32.99 82.018,30.13 85.658,30.13 C87.478,30.13 88.908,30.988 89.584,32.262 L89.584,30.468 L93.536,30.468 L93.536,43 L89.584,43 L89.584,41.232 C88.908,42.48 87.348,43.338 85.606,43.338 Z M86.75,40.036 C88.726,40.036 89.74,38.554 89.74,36.734 C89.74,34.94 88.726,33.458 86.75,33.458 C84.904,33.458 83.76,34.836 83.76,36.734 C83.76,38.632 84.904,40.036 86.75,40.036 Z M96.638,43 L100.616,43 L100.616,24.8 L96.638,24.8 L96.638,43 Z M103.692,43 L107.67,43 L107.67,24.8 L103.692,24.8 L103.692,43 Z M123.07,36.084 C123.07,36.76 123.044,37.098 122.966,37.826 L113.71,37.826 C113.788,39.464 114.88,40.4 116.648,40.4 C117.87,40.4 118.65,40.01 118.988,39.23 L122.888,39.23 C122.498,41.7 119.976,43.39 116.648,43.39 C112.384,43.39 109.758,40.92 109.758,36.734 C109.758,32.626 112.436,30.104 116.518,30.104 C120.418,30.104 123.07,32.548 123.07,36.084 Z M113.71,35.356 L119.144,35.356 C119.118,33.692 118.182,32.756 116.492,32.756 C114.776,32.756 113.736,33.822 113.71,35.356 Z M131.736,39.906 C130.748,39.906 129.994,39.62 129.994,37.774 L129.994,33.614 L132.828,33.614 L132.828,30.468 L129.994,30.468 L129.994,26.75 L126.016,26.75 L126.016,30.468 L124.04,30.468 L124.04,33.614 L126.016,33.614 L126.016,38.606 C126.016,42.792 128.59,43.208 130.462,43.208 C131.606,43.208 132.542,43.104 133.114,43 L133.114,39.828 C132.75,39.88 132.23,39.906 131.736,39.906 Z" id="hardwallet" fill="#FFFFFF"></path>
                </g>
            </g>
        </g>
    </g>
</svg>