<svg width="24" height="24" viewBox="0 0 24 24" xmlns="http://www.w3.org/2000/svg"><title>icon_gh</title><path d="M4 12.334a8.334 8.334 0 0 0 5.699 7.907c.417.076.569-.181.569-.402 0-.198-.007-.722-.011-1.417-2.318.503-2.807-1.117-2.807-1.117-.38-.963-.926-1.22-.926-1.22-.757-.516.057-.506.057-.506.837.059 1.277.859 1.277.859.743 1.273 1.95.905 2.425.692.076-.538.291-.905.53-1.114-1.851-.21-3.797-.925-3.797-4.118 0-.91.325-1.654.858-2.236-.086-.211-.372-1.059.082-2.206 0 0 .7-.224 2.291.855a7.982 7.982 0 0 1 2.087-.281 7.99 7.99 0 0 1 2.086.28c1.59-1.078 2.29-.854 2.29-.854.454 1.147.168 1.995.082 2.206.535.582.857 1.326.857 2.236 0 3.201-1.949 3.906-3.805 4.112.299.257.566.766.566 1.543 0 1.114-.01 2.013-.01 2.286 0 .223.15.482.572.401A8.334 8.334 0 1 0 4 12.334z" fill="#FFF" fill-rule="evenodd"/></svg>