<?xml version="1.0" encoding="utf-8"?>
<!-- Generator: Adobe Illustrator 16.0.0, SVG Export Plug-In . SVG Version: 6.00 Build 0)  -->
<!DOCTYPE svg PUBLIC "-//W3C//DTD SVG 1.1//EN" "http://www.w3.org/Graphics/SVG/1.1/DTD/svg11.dtd">
<svg version="1.1" id="Layer_1" xmlns="http://www.w3.org/2000/svg" xmlns:xlink="http://www.w3.org/1999/xlink" x="0px" y="0px"
	 width="24px" height="24px" viewBox="0 0 24 24" enable-background="new 0 0 24 24" xml:space="preserve">
<title>icon_sl</title>
<g id="Layer_3">
	<g>
		<g>
			<g>
				<path fill="#FFFFFF" d="M12.632,3.316H7.928c-0.012,0-0.022,0-0.035,0c-1.311,0-2.368,1.058-2.368,2.369v11.821
					c0,1.311,1.058,2.369,2.368,2.369c1.311,0,2.369-1.059,2.369-2.369v-2.369h2.37c3.254,0,5.91-2.656,5.91-5.911
					C18.542,5.972,15.886,3.316,12.632,3.316z"/>
				<path fill="#FFFFFF" d="M7.905,19.277c-0.978,0-1.771-0.793-1.771-1.771V5.673c0-0.977,0.793-1.772,1.759-1.772
					c0.012,0,0.023,0,0.035,0h4.704c2.933,0,5.325,2.393,5.325,5.325c0,2.934-2.393,5.324-5.325,5.324H9.676v2.956
					C9.676,18.473,8.882,19.277,7.905,19.277z"/>
				<path fill="#FFFFFF" d="M7.905,18.68c-0.656,0-1.185-0.531-1.185-1.186V5.673c0-0.645,0.517-1.173,1.161-1.185
					c0.012,0,0.024,0,0.035,0h4.716c2.61,0,4.726,2.128,4.726,4.727c0,2.599-2.127,4.726-4.726,4.726H9.09v3.541
					C9.09,18.148,8.561,18.68,7.905,18.68z"/>
				<path fill="#FFFFFF" d="M7.905,18.094c-0.333,0-0.598-0.266-0.598-0.6V5.673c0-0.322,0.252-0.587,0.574-0.598h0.024h4.727
					c2.289,0,4.14,1.863,4.14,4.14c0,2.276-1.851,4.14-4.14,4.14H8.502v4.139C8.502,17.828,8.238,18.094,7.905,18.094z"/>
				<path fill="#FFFFFF" d="M7.905,12.768h4.727c1.954,0,3.554-1.586,3.554-3.552c0-1.966-1.588-3.554-3.554-3.554H7.905V12.768z"/>
				<path fill="#FFFFFF" d="M8.502,12.182V6.26h4.14c1.634,0,2.955,1.322,2.955,2.956c0,1.633-1.321,2.956-2.955,2.956h-4.14V12.182
					z"/>
				<path fill="#FFFFFF" d="M9.09,11.595V6.857h3.542c1.311,0,2.369,1.059,2.369,2.369c0,1.312-1.059,2.369-2.369,2.369H9.09z"/>
				<path fill="#FFFFFF" d="M9.676,11.01V7.444h2.956c0.978,0,1.782,0.793,1.782,1.782c0,0.989-0.793,1.784-1.782,1.784H9.676z"/>
				<path fill="#FFFFFF" d="M10.262,10.411v-2.38h2.37c0.654,0,1.195,0.53,1.195,1.195c0,0.668-0.528,1.196-1.195,1.196h-2.37
					V10.411z"/>
				<path fill="#FFFFFF" d="M10.861,9.825V8.617h1.771c0.333,0,0.599,0.265,0.599,0.599c0,0.333-0.266,0.598-0.599,0.598h-1.771
					V9.825z"/>
				<g>
					<ellipse fill="#FFFFFF" cx="7.827" cy="5.678" rx="2.369" ry="2.369"/>
					<path fill="#FFFFFF" d="M18.036,16.137c0.748,1.07,0.495,2.543-0.575,3.291c-1.069,0.746-2.54,0.494-3.288-0.575l-3.542-5.062
						c-0.748-1.069-0.495-2.541,0.574-3.288c1.07-0.748,2.542-0.494,3.291,0.575L18.036,16.137z"/>
				</g>
			</g>
		</g>
	</g>
</g>
</svg>
