<?xml version="1.0" encoding="UTF-8"?>
<svg width="50px" height="50px" viewBox="0 0 50 50" version="1.1" xmlns="http://www.w3.org/2000/svg" xmlns:xlink="http://www.w3.org/1999/xlink">
    <!-- Generator: Sketch 44.1 (41455) - http://www.bohemiancoding.com/sketch -->
    <title>Shape</title>
    <desc>Created with Sketch.</desc>
    <defs></defs>
    <g id="Page-1" stroke="none" stroke-width="1" fill="none" fill-rule="evenodd">
        <g id="1280-copy-2" transform="translate(-616.000000, -224.000000)" fill="#57a7ed">
            <g id="Group-13" transform="translate(-36.000000, 79.000000)">
                <g id="Group-20" transform="translate(619.000000, 111.000000)">
                    <g id="Group-6" transform="translate(33.000000, 34.000000)">
                        <path d="M17.5760177,21.8068182 C16.0420978,21.798179 14.510541,21.929964 13,22.2005682 C14.2428613,10.7042635 23.8225011,1.99933219 35.2304071,2 C42.2144835,2 47,5.41965909 47,12.5 C47,19.5803409 41.2564387,23 32.8764885,23 C26.6903905,23 23.7621158,21.8068182 17.5760177,21.8068182 Z M17.1235115,26 C8.74356134,26 3,29.4196591 3,36.5 C3,43.5803409 7.78551648,47 14.7695929,47 C26.1774989,47.0006678 35.7571387,38.2957365 37,26.7994318 C35.489459,27.070036 33.9579022,27.201821 32.4239823,27.1931818 C26.2378842,27.1931818 23.3096095,26 17.1235115,26 Z" id="Shape"></path>
                    </g>
                </g>
            </g>
        </g>
    </g>
</svg>