<?xml version="1.0" encoding="UTF-8"?>
<svg width="21px" height="36px" viewBox="0 0 21 36" version="1.1" xmlns="http://www.w3.org/2000/svg" xmlns:xlink="http://www.w3.org/1999/xlink">
    <!-- Generator: Sketch 47 (45396) - http://www.bohemiancoding.com/sketch -->
    <title>Combined Shape</title>
    <desc>Created with Sketch.</desc>
    <defs></defs>
    <g id="Page-1" stroke="none" stroke-width="1" fill="none" fill-rule="evenodd">
        <g id="Artboard" transform="translate(-367.000000, -230.000000)" fill-rule="nonzero" fill="#3C1877">
            <g id="Rectangle-16-+-status-hardwallet-+-Group-14-+-Group-3-Mask" transform="translate(160.000000, 129.000000)">
                <g id="Group-3" transform="translate(218.000000, 119.000000) rotate(-270.000000) translate(-218.000000, -119.000000) translate(199.500000, 108.500000)">
                    <path d="M26.2768665,19.2128457 L23.7231335,20.7871543 C22.4712414,18.7564229 20.2814708,17.5 17.8787432,17.5 C15.6039072,17.5 13.5166911,18.6249952 12.234079,20.4813305 L9.76592102,18.775987 C11.6016708,16.1190909 14.6055883,14.5 17.8787432,14.5 C21.3360116,14.5 24.4855598,16.3071137 26.2768665,19.2128457 Z M31.2431662,14.1606325 L28.7568338,15.8393675 C26.5378368,12.5528665 22.6192269,10.5 18.3007924,10.5 C14.2110851,10.5 10.4726873,12.3397559 8.19611846,15.3481404 L5.80388154,13.5378359 C8.65033575,9.77637323 13.2759433,7.5 18.3007924,7.5 C23.6094942,7.5 28.4626223,10.0424384 31.2431662,14.1606325 Z M36.2600613,10.1862154 L33.7399387,11.8137846 C30.4288777,6.68694915 24.6099723,3.5 18.2141804,3.5 C12.1582832,3.5 6.60919906,6.35496743 3.2150854,11.0440091 L0.784914597,9.28495538 C4.74122535,3.81922628 11.1926706,0.5 18.2141804,0.5 C25.6312362,0.5 32.3978679,4.20600821 36.2600613,10.1862154 Z" id="Combined-Shape"></path>
                </g>
            </g>
        </g>
    </g>
</svg>