<svg width="44" height="44" viewBox="0 0 44 44" xmlns="http://www.w3.org/2000/svg"><title>Combined Shape</title><path d="M22 44C9.85 44 0 34.15 0 22S9.85 0 22 0s22 9.85 22 22-9.85 22-22 22zm-3.878-21.143c-3.912.2-6.282 2.036-6.114 4.78.172 2.793 3.324 4.513 6.479 4.353 5.14-.262 8.92-4.39 9.346-9.107-.698.15-1.433.239-2.126.274-2.887.147-4.697-.447-7.585-.3zm7.756-1.714c3.912-.2 6.282-2.036 6.114-4.78-.172-2.793-3.324-4.513-6.479-4.353-5.14.262-8.92 4.39-9.346 9.107.698-.15 1.433-.239 2.126-.274 2.887-.147 4.697.447 7.585.3z" fill="#692FC7" fill-rule="evenodd"/></svg>