<svg width="24" height="24" viewBox="0 0 24 24" xmlns="http://www.w3.org/2000/svg"><title>icon_rd</title><g fill="none" fill-rule="evenodd"><path d="M19.65 13a2 2 0 1 0 0-4 2 2 0 0 0 0 4zm-15.3 0a2 2 0 1 0 0-4 2 2 0 0 0 0 4zM12 21c4.694 0 8.5-2.686 8.5-6S16.694 9 12 9s-8.5 2.686-8.5 6 3.806 6 8.5 6zm-.002-2.042v-.001a7.103 7.103 0 0 1-3.234-.782 3.965 3.965 0 0 1-.281-.16c-.374-.253-.434-.743-.125-1.063.281-.291.775-.335 1.118-.102 1.058.736 2.998 1.104 5.108-.04.363-.203.848-.118 1.1.197.286.346.165.826-.234 1.048-1.136.62-2.299.903-3.452.903zM8.6 14.9a1.7 1.7 0 1 1 0-3.4 1.7 1.7 0 0 1 0 3.4zm6.8 0a1.7 1.7 0 1 1 0-3.4 1.7 1.7 0 0 1 0 3.4z" fill="#FFF" fill-rule="nonzero"/><path stroke="#FFF" stroke-width="1.5" d="M11.844 11.805l.493-5.544 4.123-1.07"/><circle stroke="#FFF" stroke-width=".8" fill="#FFF" fill-rule="nonzero" cx="16.7" cy="5.1" r="1.5"/></g></svg>