<svg width="24" height="24" viewBox="0 0 24 24" xmlns="http://www.w3.org/2000/svg"><title>icon_tw</title><path d="M18.232 8.056a3.268 3.268 0 0 0 1.354-1.816c-.599.38-1.261.65-1.955.796A2.988 2.988 0 0 0 15.385 6c-1.7 0-3.078 1.469-3.078 3.282 0 .251.027.502.081.747-2.558-.136-4.826-1.442-6.344-3.428a3.427 3.427 0 0 0-.416 1.65c0 1.138.542 2.143 1.368 2.731a2.922 2.922 0 0 1-1.394-.41v.041c0 1.59 1.062 2.917 2.47 3.218a2.92 2.92 0 0 1-1.39.057c.391 1.304 1.528 2.252 2.875 2.279A5.935 5.935 0 0 1 5 17.526 8.322 8.322 0 0 0 9.717 19c5.66 0 8.756-5 8.756-9.338 0-.142-.003-.284-.009-.424A6.502 6.502 0 0 0 20 7.539a5.866 5.866 0 0 1-1.768.517z" fill="#FFF" fill-rule="evenodd"/></svg>