<svg width="24" height="24" viewBox="0 0 24 24" xmlns="http://www.w3.org/2000/svg"><title>icon_yt</title><path d="M10.142 14.356l-.001-5.057 4.864 2.537-4.863 2.52zM20.82 8.422s-.176-1.24-.715-1.786c-.685-.717-1.452-.72-1.804-.763-2.519-.182-6.297-.182-6.297-.182h-.008s-3.778 0-6.297.182c-.352.042-1.119.046-1.804.763-.54.546-.715 1.786-.715 1.786S3 9.88 3 11.336V12.7c0 1.457.18 2.913.18 2.913s.176 1.24.715 1.787c.685.717 1.584.694 1.985.77 1.44.138 6.12.18 6.12.18s3.782-.005 6.301-.187c.352-.042 1.12-.046 1.804-.763.54-.546.715-1.787.715-1.787S21 14.157 21 12.7v-1.365c0-1.457-.18-2.914-.18-2.914z" fill="#FFF" fill-rule="evenodd"/></svg>