<svg width="21" height="36" viewBox="0 0 21 36" xmlns="http://www.w3.org/2000/svg"><title>Combined Shape</title><path d="M2.287 25.777L.713 23.223C2.743 21.971 4 19.781 4 17.38c0-2.275-1.125-4.362-2.981-5.645l1.705-2.468C5.381 11.102 7 14.106 7 17.379c0 3.457-1.807 6.607-4.713 8.398zm5.052 4.966l-1.678-2.486C8.947 26.037 11 22.119 11 17.8c0-4.09-1.84-7.828-4.848-10.105l1.81-2.392C11.724 8.15 14 12.776 14 17.8c0 5.308-2.542 10.162-6.66 12.942zm3.975 5.017l-1.628-2.52C14.813 29.929 18 24.11 18 17.714c0-6.056-2.855-11.605-7.544-14.999l1.759-2.43C17.681 4.24 21 10.693 21 17.715c0 7.416-3.706 14.183-9.686 18.045z" fill-rule="nonzero" fill="#3C1877"/></svg>