<svg width="134" height="44" viewBox="0 0 134 44" xmlns="http://www.w3.org/2000/svg"><title>Group</title><g fill="none" fill-rule="evenodd"><path d="M6.656 17.39c3.432 0 5.486-1.742 5.486-4.316 0-1.794-1.248-2.964-3.172-3.484l-2.964-.806C5.33 8.602 4.94 8.238 4.94 7.666c0-.624.572-1.04 1.43-1.04 1.066 0 1.716.494 1.716 1.378h3.926c0-2.366-1.924-3.9-5.59-3.9-3.302 0-5.356 1.638-5.356 3.978 0 1.794 1.066 3.094 3.146 3.614l3.068.78c.676.156.91.572.91 1.066 0 .728-.598 1.17-1.456 1.17-1.222 0-2.054-.624-2.054-1.482H.728c0 2.366 2.262 4.16 5.928 4.16zm14.334-3.484c-.988 0-1.742-.286-1.742-2.132v-4.16h2.834V4.468h-2.834V.75H15.27v3.718h-1.976v3.146h1.976v4.992c0 4.186 2.574 4.602 4.446 4.602 1.144 0 2.08-.104 2.652-.208v-3.172c-.364.052-.884.078-1.378.078zm8.458 3.432c-3.744 0-5.902-2.834-5.902-6.604 0-3.744 2.314-6.604 5.954-6.604 1.82 0 3.25.858 3.926 2.132V4.468h3.952V17h-3.952v-1.768c-.676 1.248-2.236 2.106-3.978 2.106zm1.144-3.302c1.976 0 2.99-1.482 2.99-3.302 0-1.794-1.014-3.276-2.99-3.276-1.846 0-2.99 1.378-2.99 3.276s1.144 3.302 2.99 3.302zm16.466-.13c-.988 0-1.742-.286-1.742-2.132v-4.16h2.834V4.468h-2.834V.75h-3.978v3.718h-1.976v3.146h1.976v4.992c0 4.186 2.574 4.602 4.446 4.602 1.144 0 2.08-.104 2.652-.208v-3.172c-.364.052-.884.078-1.378.078zm7.964 3.432c1.898 0 3.198-.806 3.9-2.132V17h3.952V4.468h-3.952v6.734c0 1.69-.728 2.782-2.418 2.782-1.508 0-2.08-.936-2.08-2.652V4.468h-4.03v7.748c0 3.25 1.612 5.122 4.628 5.122zm15.972.052c3.432 0 5.486-1.742 5.486-4.316 0-1.794-1.248-2.964-3.172-3.484l-2.964-.806c-.676-.182-1.066-.546-1.066-1.118 0-.624.572-1.04 1.43-1.04 1.066 0 1.716.494 1.716 1.378h3.926c0-2.366-1.924-3.9-5.59-3.9-3.302 0-5.356 1.638-5.356 3.978 0 1.794 1.066 3.094 3.146 3.614l3.068.78c.676.156.91.572.91 1.066 0 .728-.598 1.17-1.456 1.17-1.222 0-2.054-.624-2.054-1.482h-3.952c0 2.366 2.262 4.16 5.928 4.16z" fill="#3C1877"/><path d="M1.638 43h3.978v-6.552c0-1.924.832-2.964 2.418-2.964 1.612 0 2.21.962 2.21 3.068V43h4.004v-7.748c0-3.406-1.534-5.122-4.576-5.122-1.898 0-3.328.754-4.056 2.158V24.8H1.638V43zm20.574.338c-3.744 0-5.902-2.834-5.902-6.604 0-3.744 2.314-6.604 5.954-6.604 1.82 0 3.25.858 3.926 2.132v-1.794h3.952V43H26.19v-1.768c-.676 1.248-2.236 2.106-3.978 2.106zm1.144-3.302c1.976 0 2.99-1.482 2.99-3.302 0-1.794-1.014-3.276-2.99-3.276-1.846 0-2.99 1.378-2.99 3.276s1.144 3.302 2.99 3.302zM33.244 43h3.978v-4.836c0-3.016 1.352-4.186 3.302-4.186.494 0 .728.026 1.196.078v-3.692c-.312-.078-.572-.104-1.04-.104-1.534 0-3.016.962-3.458 2.834v-2.626h-3.978V43zm15.4.338c-3.744 0-5.902-2.834-5.902-6.604 0-3.744 2.314-6.604 5.954-6.604 1.82 0 3.25.858 3.926 2.132V24.8h3.952V43h-3.952v-1.768c-.676 1.248-2.236 2.106-3.978 2.106zm1.144-3.302c1.976 0 2.99-1.482 2.99-3.302 0-1.794-1.014-3.276-2.99-3.276-1.846 0-2.99 1.378-2.99 3.276s1.144 3.302 2.99 3.302zM62.64 43h3.562l2.392-7.618L71.012 43h3.562l4.498-12.532h-4.134l-2.262 7.592-2.132-7.592H66.67l-2.132 7.592-2.262-7.592h-4.16L62.64 43zm22.966.338c-3.744 0-5.902-2.834-5.902-6.604 0-3.744 2.314-6.604 5.954-6.604 1.82 0 3.25.858 3.926 2.132v-1.794h3.952V43h-3.952v-1.768c-.676 1.248-2.236 2.106-3.978 2.106zm1.144-3.302c1.976 0 2.99-1.482 2.99-3.302 0-1.794-1.014-3.276-2.99-3.276-1.846 0-2.99 1.378-2.99 3.276s1.144 3.302 2.99 3.302zM96.638 43h3.978V24.8h-3.978V43zm7.054 0h3.978V24.8h-3.978V43zm19.378-6.916c0 .676-.026 1.014-.104 1.742h-9.256c.078 1.638 1.17 2.574 2.938 2.574 1.222 0 2.002-.39 2.34-1.17h3.9c-.39 2.47-2.912 4.16-6.24 4.16-4.264 0-6.89-2.47-6.89-6.656 0-4.108 2.678-6.63 6.76-6.63 3.9 0 6.552 2.444 6.552 5.98zm-9.36-.728h5.434c-.026-1.664-.962-2.6-2.652-2.6-1.716 0-2.756 1.066-2.782 2.6zm18.026 4.55c-.988 0-1.742-.286-1.742-2.132v-4.16h2.834v-3.146h-2.834V26.75h-3.978v3.718h-1.976v3.146h1.976v4.992c0 4.186 2.574 4.602 4.446 4.602 1.144 0 2.08-.104 2.652-.208v-3.172c-.364.052-.884.078-1.378.078z" fill="#FFF"/></g></svg>