<svg xmlns="http://www.w3.org/2000/svg" width="24" height="24" viewBox="0 0 24 24"><title>icon_sl</title><g fill="#FFF"><path d="M12.632 3.316H7.893a2.365 2.365 0 0 0-2.368 2.369v11.821a2.365 2.365 0 0 0 2.368 2.369 2.366 2.366 0 0 0 2.369-2.369v-2.369h2.37c3.254 0 5.91-2.656 5.91-5.911 0-3.254-2.656-5.91-5.91-5.91z"/><path d="M7.905 19.277a1.771 1.771 0 0 1-1.771-1.771V5.673a1.77 1.77 0 0 1 1.759-1.772h4.739a5.336 5.336 0 0 1 5.325 5.325 5.334 5.334 0 0 1-5.325 5.324H9.676v2.956c0 .967-.794 1.771-1.771 1.771z"/><path d="M7.905 18.68a1.185 1.185 0 0 1-1.185-1.186V5.673c0-.645.517-1.173 1.161-1.185h4.751a4.734 4.734 0 0 1 4.726 4.727 4.74 4.74 0 0 1-4.726 4.726H9.09v3.541c0 .666-.529 1.198-1.185 1.198z"/><path d="M7.905 18.094a.596.596 0 0 1-.598-.6V5.673c0-.322.252-.587.574-.598h4.751a4.144 4.144 0 0 1 4.14 4.14 4.145 4.145 0 0 1-4.14 4.14h-4.13v4.139c0 .334-.264.6-.597.6z"/><path d="M7.905 12.768h4.727a3.556 3.556 0 0 0 3.554-3.552 3.55 3.55 0 0 0-3.554-3.554H7.905v7.106z"/><path d="M8.502 12.182V6.26h4.14a2.953 2.953 0 0 1 2.955 2.956 2.954 2.954 0 0 1-2.955 2.956h-4.14v.01z"/><path d="M9.09 11.595V6.857h3.542a2.366 2.366 0 0 1 2.369 2.369 2.366 2.366 0 0 1-2.369 2.369H9.09z"/><path d="M9.676 11.01V7.444h2.956a1.783 1.783 0 0 1 0 3.566H9.676z"/><path d="M10.262 10.411v-2.38h2.37c.654 0 1.195.53 1.195 1.195 0 .668-.528 1.196-1.195 1.196h-2.37v-.011z"/><path d="M10.861 9.825V8.617h1.771c.333 0 .599.265.599.599a.595.595 0 0 1-.599.598h-1.771v.011z"/><ellipse cx="7.827" cy="5.678" rx="2.369" ry="2.369"/><path d="M18.036 16.137a2.361 2.361 0 1 1-3.863 2.716l-3.542-5.062a2.362 2.362 0 0 1 3.865-2.713l3.54 5.059z"/></g></svg>