<svg xmlns="http://www.w3.org/2000/svg" xmlns:xlink="http://www.w3.org/1999/xlink" width="24" height="24" viewBox="0 0 24 24">
    <defs>
        <path id="a" d="M.048 15.992h12.236V.005H.048v15.987z"/>
    </defs>
    <g fill="none" fill-rule="evenodd">
        <g transform="translate(4.836 4)">
            <mask id="b" fill="#fff">
                <use xlink:href="#a"/>
            </mask>
            <path fill="#FFF" d="M8.537.99a1.425 1.425 0 1 0-2.71.88L9.51 13.206a1.425 1.425 0 0 0 1.733.883c.756-.218 1.217-1.02.976-1.763L8.537.99M2.828 2.845a1.425 1.425 0 0 0-2.71.88l3.684 11.336a1.425 1.425 0 0 0 1.733.883c.757-.218 1.218-1.02.976-1.764L2.828 2.845" mask="url(#b)"/>
        </g>
        <path fill="#FFF" d="M18.01 14.378a1.425 1.425 0 1 0-.88-2.71L5.794 15.352a1.425 1.425 0 0 0-.883 1.733c.218.756 1.02 1.217 1.763.976l11.336-3.683"/>
        <path fill="#FFF" d="M8.157 17.58c.738-.24 1.689-.55 2.709-.88l-.88-2.71-2.71.88.88 2.71M13.865 15.724l2.71-.88c-.24-.738-.55-1.689-.88-2.71l-2.71.88.88 2.71M16.155 8.67a1.425 1.425 0 0 0-.88-2.711L3.939 9.643a1.424 1.424 0 0 0-.883 1.733c.218.757 1.02 1.218 1.764.976L16.155 8.67"/>
        <path fill="#FFF" d="M6.301 11.87l2.71-.88-.88-2.71-2.71.882.88 2.709M12.01 10.016l2.71-.88-.88-2.71-2.71.88.88 2.71"/>
    </g>
</svg>
